<svg xmlns="http://www.w3.org/2000/svg" width="476" height="506" viewBox="0 0 476 506" font-family="sans-serif" font-size="8">
<rect width="476" height="506" fill="#fff"/>
<rect x="154" y="184" width="10" height="10" fill="#1d1d1b"/>
<rect x="164" y="184" width="10" height="10" fill="#1d1d1b"/>
<rect x="174" y="184" width="10" height="10" fill="#1d1d1b"/>
<rect x="184" y="184" width="10" height="10" fill="#1d1d1b"/>
<rect x="194" y="184" width="10" height="10" fill="#1d1d1b"/>
<rect x="204" y="184" width="10" height="10" fill="#1d1d1b"/>
<rect x="214" y="184" width="10" height="10" fill="#1d1d1b"/>
<rect x="224" y="184" width="10" height="10" fill="#1d1d1b"/>
<rect x="234" y="184" width="10" height="10" fill="#1d1d1b"/>
<rect x="244" y="184" width="10" height="10" fill="#1d1d1b"/>
<rect x="254" y="184" width="10" height="10" fill="#1d1d1b"/>
<rect x="264" y="184" width="10" height="10" fill="#1d1d1b"/>
<rect x="274" y="184" width="10" height="10" fill="#1d1d1b"/>
<rect x="284" y="184" width="10" height="10" fill="#1d1d1b"/>
<rect x="294" y="184" width="10" height="10" fill="#1d1d1b"/>
<rect x="304" y="184" width="10" height="10" fill="#1d1d1b"/>
<rect x="314" y="184" width="10" height="10" fill="#1d1d1b"/>
<rect x="324" y="184" width="10" height="10" fill="#1d1d1b"/>
<rect x="334" y="184" width="10" height="10" fill="#1d1d1b"/>
<rect x="344" y="184" width="10" height="10" fill="#1d1d1b"/>
<rect x="354" y="184" width="10" height="10" fill="#1d1d1b"/>
<rect x="364" y="184" width="10" height="10" fill="#1d1d1b"/>
<rect x="374" y="184" width="10" height="10" fill="#1d1d1b"/>
<rect x="384" y="184" width="10" height="10" fill="#1d1d1b"/>
<rect x="394" y="184" width="10" height="10" fill="#1d1d1b"/>
<rect x="404" y="184" width="10" height="10" fill="#1d1d1b"/>
<rect x="414" y="184" width="10" height="10" fill="#1d1d1b"/>
<rect x="424" y="184" width="10" height="10" fill="#1d1d1b"/>
<rect x="434" y="184" width="10" height="10" fill="#1d1d1b"/>
<rect x="444" y="184" width="10" height="10" fill="#1d1d1b"/>
<rect x="454" y="184" width="10" height="10" fill="#1d1d1b"/>
<rect x="464" y="184" width="10" height="10" fill="#1d1d1b"/>
<rect x="154" y="194" width="10" height="10" fill="#1d1d1b"/>
<rect x="174" y="194" width="10" height="10" fill="#1d1d1b"/>
<rect x="194" y="194" width="10" height="10" fill="#1d1d1b"/>
<rect x="214" y="194" width="10" height="10" fill="#1d1d1b"/>
<rect x="234" y="194" width="10" height="10" fill="#1d1d1b"/>
<rect x="254" y="194" width="10" height="10" fill="#1d1d1b"/>
<rect x="274" y="194" width="10" height="10" fill="#1d1d1b"/>
<rect x="294" y="194" width="10" height="10" fill="#1d1d1b"/>
<rect x="314" y="194" width="10" height="10" fill="#1d1d1b"/>
<rect x="334" y="194" width="10" height="10" fill="#1d1d1b"/>
<rect x="354" y="194" width="10" height="10" fill="#1d1d1b"/>
<rect x="374" y="194" width="10" height="10" fill="#1d1d1b"/>
<rect x="394" y="194" width="10" height="10" fill="#1d1d1b"/>
<rect x="414" y="194" width="10" height="10" fill="#1d1d1b"/>
<rect x="434" y="194" width="10" height="10" fill="#1d1d1b"/>
<rect x="454" y="194" width="10" height="10" fill="#1d1d1b"/>
<rect x="154" y="204" width="10" height="10" fill="#1d1d1b"/>
<rect x="164" y="204" width="10" height="10" fill="#1d1d1b"/>
<rect x="194" y="204" width="10" height="10" fill="#1d1d1b"/>
<rect x="204" y="204" width="10" height="10" fill="#1d1d1b"/>
<rect x="234" y="204" width="10" height="10" fill="#1d1d1b"/>
<rect x="244" y="204" width="10" height="10" fill="#1d1d1b"/>
<rect x="274" y="204" width="10" height="10" fill="#1d1d1b"/>
<rect x="284" y="204" width="10" height="10" fill="#1d1d1b"/>
<rect x="314" y="204" width="10" height="10" fill="#1d1d1b"/>
<rect x="324" y="204" width="10" height="10" fill="#1d1d1b"/>
<rect x="354" y="204" width="10" height="10" fill="#1d1d1b"/>
<rect x="364" y="204" width="10" height="10" fill="#1d1d1b"/>
<rect x="394" y="204" width="10" height="10" fill="#1d1d1b"/>
<rect x="404" y="204" width="10" height="10" fill="#1d1d1b"/>
<rect x="434" y="204" width="10" height="10" fill="#1d1d1b"/>
<rect x="444" y="204" width="10" height="10" fill="#1d1d1b"/>
<rect x="154" y="214" width="10" height="10" fill="#1d1d1b"/>
<rect x="194" y="214" width="10" height="10" fill="#1d1d1b"/>
<rect x="234" y="214" width="10" height="10" fill="#1d1d1b"/>
<rect x="274" y="214" width="10" height="10" fill="#1d1d1b"/>
<rect x="314" y="214" width="10" height="10" fill="#1d1d1b"/>
<rect x="354" y="214" width="10" height="10" fill="#1d1d1b"/>
<rect x="394" y="214" width="10" height="10" fill="#1d1d1b"/>
<rect x="434" y="214" width="10" height="10" fill="#1d1d1b"/>
<rect x="154" y="224" width="10" height="10" fill="#1d1d1b"/>
<rect x="164" y="224" width="10" height="10" fill="#1d1d1b"/>
<rect x="174" y="224" width="10" height="10" fill="#1d1d1b"/>
<rect x="184" y="224" width="10" height="10" fill="#1d1d1b"/>
<rect x="234" y="224" width="10" height="10" fill="#1d1d1b"/>
<rect x="244" y="224" width="10" height="10" fill="#1d1d1b"/>
<rect x="254" y="224" width="10" height="10" fill="#1d1d1b"/>
<rect x="264" y="224" width="10" height="10" fill="#1d1d1b"/>
<rect x="314" y="224" width="10" height="10" fill="#1d1d1b"/>
<rect x="324" y="224" width="10" height="10" fill="#1d1d1b"/>
<rect x="334" y="224" width="10" height="10" fill="#1d1d1b"/>
<rect x="344" y="224" width="10" height="10" fill="#1d1d1b"/>
<rect x="394" y="224" width="10" height="10" fill="#1d1d1b"/>
<rect x="404" y="224" width="10" height="10" fill="#1d1d1b"/>
<rect x="414" y="224" width="10" height="10" fill="#1d1d1b"/>
<rect x="424" y="224" width="10" height="10" fill="#1d1d1b"/>
<rect x="154" y="234" width="10" height="10" fill="#1d1d1b"/>
<rect x="174" y="234" width="10" height="10" fill="#1d1d1b"/>
<rect x="234" y="234" width="10" height="10" fill="#1d1d1b"/>
<rect x="254" y="234" width="10" height="10" fill="#1d1d1b"/>
<rect x="314" y="234" width="10" height="10" fill="#1d1d1b"/>
<rect x="334" y="234" width="10" height="10" fill="#1d1d1b"/>
<rect x="394" y="234" width="10" height="10" fill="#1d1d1b"/>
<rect x="414" y="234" width="10" height="10" fill="#1d1d1b"/>
<rect x="154" y="244" width="10" height="10" fill="#1d1d1b"/>
<rect x="164" y="244" width="10" height="10" fill="#1d1d1b"/>
<rect x="234" y="244" width="10" height="10" fill="#1d1d1b"/>
<rect x="244" y="244" width="10" height="10" fill="#1d1d1b"/>
<rect x="314" y="244" width="10" height="10" fill="#1d1d1b"/>
<rect x="324" y="244" width="10" height="10" fill="#1d1d1b"/>
<rect x="394" y="244" width="10" height="10" fill="#1d1d1b"/>
<rect x="404" y="244" width="10" height="10" fill="#1d1d1b"/>
<rect x="154" y="254" width="10" height="10" fill="#1d1d1b"/>
<rect x="234" y="254" width="10" height="10" fill="#1d1d1b"/>
<rect x="314" y="254" width="10" height="10" fill="#1d1d1b"/>
<rect x="394" y="254" width="10" height="10" fill="#1d1d1b"/>
<rect x="154" y="264" width="10" height="10" fill="#1d1d1b"/>
<rect x="164" y="264" width="10" height="10" fill="#1d1d1b"/>
<rect x="174" y="264" width="10" height="10" fill="#1d1d1b"/>
<rect x="184" y="264" width="10" height="10" fill="#1d1d1b"/>
<rect x="194" y="264" width="10" height="10" fill="#1d1d1b"/>
<rect x="204" y="264" width="10" height="10" fill="#1d1d1b"/>
<rect x="214" y="264" width="10" height="10" fill="#1d1d1b"/>
<rect x="224" y="264" width="10" height="10" fill="#1d1d1b"/>
<rect x="314" y="264" width="10" height="10" fill="#1d1d1b"/>
<rect x="324" y="264" width="10" height="10" fill="#1d1d1b"/>
<rect x="334" y="264" width="10" height="10" fill="#1d1d1b"/>
<rect x="344" y="264" width="10" height="10" fill="#1d1d1b"/>
<rect x="354" y="264" width="10" height="10" fill="#1d1d1b"/>
<rect x="364" y="264" width="10" height="10" fill="#1d1d1b"/>
<rect x="374" y="264" width="10" height="10" fill="#1d1d1b"/>
<rect x="384" y="264" width="10" height="10" fill="#1d1d1b"/>
<rect x="154" y="274" width="10" height="10" fill="#1d1d1b"/>
<rect x="174" y="274" width="10" height="10" fill="#1d1d1b"/>
<rect x="194" y="274" width="10" height="10" fill="#1d1d1b"/>
<rect x="214" y="274" width="10" height="10" fill="#1d1d1b"/>
<rect x="314" y="274" width="10" height="10" fill="#1d1d1b"/>
<rect x="334" y="274" width="10" height="10" fill="#1d1d1b"/>
<rect x="354" y="274" width="10" height="10" fill="#1d1d1b"/>
<rect x="374" y="274" width="10" height="10" fill="#1d1d1b"/>
<rect x="154" y="284" width="10" height="10" fill="#1d1d1b"/>
<rect x="164" y="284" width="10" height="10" fill="#1d1d1b"/>
<rect x="194" y="284" width="10" height="10" fill="#1d1d1b"/>
<rect x="204" y="284" width="10" height="10" fill="#1d1d1b"/>
<rect x="314" y="284" width="10" height="10" fill="#1d1d1b"/>
<rect x="324" y="284" width="10" height="10" fill="#1d1d1b"/>
<rect x="354" y="284" width="10" height="10" fill="#1d1d1b"/>
<rect x="364" y="284" width="10" height="10" fill="#1d1d1b"/>
<rect x="154" y="294" width="10" height="10" fill="#1d1d1b"/>
<rect x="194" y="294" width="10" height="10" fill="#1d1d1b"/>
<rect x="314" y="294" width="10" height="10" fill="#1d1d1b"/>
<rect x="354" y="294" width="10" height="10" fill="#1d1d1b"/>
<rect x="154" y="304" width="10" height="10" fill="#1d1d1b"/>
<rect x="164" y="304" width="10" height="10" fill="#1d1d1b"/>
<rect x="174" y="304" width="10" height="10" fill="#1d1d1b"/>
<rect x="184" y="304" width="10" height="10" fill="#1d1d1b"/>
<rect x="314" y="304" width="10" height="10" fill="#1d1d1b"/>
<rect x="324" y="304" width="10" height="10" fill="#1d1d1b"/>
<rect x="334" y="304" width="10" height="10" fill="#1d1d1b"/>
<rect x="344" y="304" width="10" height="10" fill="#1d1d1b"/>
<rect x="154" y="314" width="10" height="10" fill="#1d1d1b"/>
<rect x="174" y="314" width="10" height="10" fill="#1d1d1b"/>
<rect x="314" y="314" width="10" height="10" fill="#1d1d1b"/>
<rect x="334" y="314" width="10" height="10" fill="#1d1d1b"/>
<rect x="154" y="324" width="10" height="10" fill="#1d1d1b"/>
<rect x="164" y="324" width="10" height="10" fill="#1d1d1b"/>
<rect x="314" y="324" width="10" height="10" fill="#1d1d1b"/>
<rect x="324" y="324" width="10" height="10" fill="#1d1d1b"/>
<rect x="154" y="334" width="10" height="10" fill="#1d1d1b"/>
<rect x="314" y="334" width="10" height="10" fill="#1d1d1b"/>
<rect x="154" y="344" width="10" height="10" fill="#1d1d1b"/>
<rect x="164" y="344" width="10" height="10" fill="#1d1d1b"/>
<rect x="174" y="344" width="10" height="10" fill="#1d1d1b"/>
<rect x="184" y="344" width="10" height="10" fill="#1d1d1b"/>
<rect x="194" y="344" width="10" height="10" fill="#1d1d1b"/>
<rect x="204" y="344" width="10" height="10" fill="#1d1d1b"/>
<rect x="214" y="344" width="10" height="10" fill="#1d1d1b"/>
<rect x="224" y="344" width="10" height="10" fill="#1d1d1b"/>
<rect x="234" y="344" width="10" height="10" fill="#1d1d1b"/>
<rect x="244" y="344" width="10" height="10" fill="#1d1d1b"/>
<rect x="254" y="344" width="10" height="10" fill="#1d1d1b"/>
<rect x="264" y="344" width="10" height="10" fill="#1d1d1b"/>
<rect x="274" y="344" width="10" height="10" fill="#1d1d1b"/>
<rect x="284" y="344" width="10" height="10" fill="#1d1d1b"/>
<rect x="294" y="344" width="10" height="10" fill="#1d1d1b"/>
<rect x="304" y="344" width="10" height="10" fill="#1d1d1b"/>
<rect x="154" y="354" width="10" height="10" fill="#1d1d1b"/>
<rect x="174" y="354" width="10" height="10" fill="#1d1d1b"/>
<rect x="194" y="354" width="10" height="10" fill="#1d1d1b"/>
<rect x="214" y="354" width="10" height="10" fill="#1d1d1b"/>
<rect x="234" y="354" width="10" height="10" fill="#1d1d1b"/>
<rect x="254" y="354" width="10" height="10" fill="#1d1d1b"/>
<rect x="274" y="354" width="10" height="10" fill="#1d1d1b"/>
<rect x="294" y="354" width="10" height="10" fill="#1d1d1b"/>
<rect x="154" y="364" width="10" height="10" fill="#1d1d1b"/>
<rect x="164" y="364" width="10" height="10" fill="#1d1d1b"/>
<rect x="194" y="364" width="10" height="10" fill="#1d1d1b"/>
<rect x="204" y="364" width="10" height="10" fill="#1d1d1b"/>
<rect x="234" y="364" width="10" height="10" fill="#1d1d1b"/>
<rect x="244" y="364" width="10" height="10" fill="#1d1d1b"/>
<rect x="274" y="364" width="10" height="10" fill="#1d1d1b"/>
<rect x="284" y="364" width="10" height="10" fill="#1d1d1b"/>
<rect x="154" y="374" width="10" height="10" fill="#1d1d1b"/>
<rect x="194" y="374" width="10" height="10" fill="#1d1d1b"/>
<rect x="234" y="374" width="10" height="10" fill="#1d1d1b"/>
<rect x="274" y="374" width="10" height="10" fill="#1d1d1b"/>
<rect x="154" y="384" width="10" height="10" fill="#1d1d1b"/>
<rect x="164" y="384" width="10" height="10" fill="#1d1d1b"/>
<rect x="174" y="384" width="10" height="10" fill="#1d1d1b"/>
<rect x="184" y="384" width="10" height="10" fill="#1d1d1b"/>
<rect x="234" y="384" width="10" height="10" fill="#1d1d1b"/>
<rect x="244" y="384" width="10" height="10" fill="#1d1d1b"/>
<rect x="254" y="384" width="10" height="10" fill="#1d1d1b"/>
<rect x="264" y="384" width="10" height="10" fill="#1d1d1b"/>
<rect x="154" y="394" width="10" height="10" fill="#1d1d1b"/>
<rect x="174" y="394" width="10" height="10" fill="#1d1d1b"/>
<rect x="234" y="394" width="10" height="10" fill="#1d1d1b"/>
<rect x="254" y="394" width="10" height="10" fill="#1d1d1b"/>
<rect x="154" y="404" width="10" height="10" fill="#1d1d1b"/>
<rect x="164" y="404" width="10" height="10" fill="#1d1d1b"/>
<rect x="234" y="404" width="10" height="10" fill="#1d1d1b"/>
<rect x="244" y="404" width="10" height="10" fill="#1d1d1b"/>
<rect x="154" y="414" width="10" height="10" fill="#1d1d1b"/>
<rect x="234" y="414" width="10" height="10" fill="#1d1d1b"/>
<rect x="154" y="424" width="10" height="10" fill="#1d1d1b"/>
<rect x="164" y="424" width="10" height="10" fill="#1d1d1b"/>
<rect x="174" y="424" width="10" height="10" fill="#1d1d1b"/>
<rect x="184" y="424" width="10" height="10" fill="#1d1d1b"/>
<rect x="194" y="424" width="10" height="10" fill="#1d1d1b"/>
<rect x="204" y="424" width="10" height="10" fill="#1d1d1b"/>
<rect x="214" y="424" width="10" height="10" fill="#1d1d1b"/>
<rect x="224" y="424" width="10" height="10" fill="#1d1d1b"/>
<rect x="154" y="434" width="10" height="10" fill="#1d1d1b"/>
<rect x="174" y="434" width="10" height="10" fill="#1d1d1b"/>
<rect x="194" y="434" width="10" height="10" fill="#1d1d1b"/>
<rect x="214" y="434" width="10" height="10" fill="#1d1d1b"/>
<rect x="154" y="444" width="10" height="10" fill="#1d1d1b"/>
<rect x="164" y="444" width="10" height="10" fill="#1d1d1b"/>
<rect x="194" y="444" width="10" height="10" fill="#1d1d1b"/>
<rect x="204" y="444" width="10" height="10" fill="#1d1d1b"/>
<rect x="154" y="454" width="10" height="10" fill="#1d1d1b"/>
<rect x="194" y="454" width="10" height="10" fill="#1d1d1b"/>
<rect x="154" y="464" width="10" height="10" fill="#1d1d1b"/>
<rect x="164" y="464" width="10" height="10" fill="#1d1d1b"/>
<rect x="174" y="464" width="10" height="10" fill="#1d1d1b"/>
<rect x="184" y="464" width="10" height="10" fill="#1d1d1b"/>
<rect x="154" y="474" width="10" height="10" fill="#1d1d1b"/>
<rect x="174" y="474" width="10" height="10" fill="#1d1d1b"/>
<rect x="154" y="484" width="10" height="10" fill="#1d1d1b"/>
<rect x="164" y="484" width="10" height="10" fill="#1d1d1b"/>
<rect x="154" y="494" width="10" height="10" fill="#1d1d1b"/>
<line x1="154" y1="184" x2="154" y2="504" stroke="#444" stroke-width="1.2"/>
<line x1="164" y1="184" x2="164" y2="504" stroke="#ccc" stroke-width="0.6"/>
<line x1="174" y1="184" x2="174" y2="504" stroke="#ccc" stroke-width="0.6"/>
<line x1="184" y1="184" x2="184" y2="504" stroke="#ccc" stroke-width="0.6"/>
<line x1="194" y1="184" x2="194" y2="504" stroke="#ccc" stroke-width="0.6"/>
<line x1="204" y1="184" x2="204" y2="504" stroke="#444" stroke-width="1.2"/>
<line x1="214" y1="184" x2="214" y2="504" stroke="#ccc" stroke-width="0.6"/>
<line x1="224" y1="184" x2="224" y2="504" stroke="#ccc" stroke-width="0.6"/>
<line x1="234" y1="184" x2="234" y2="504" stroke="#ccc" stroke-width="0.6"/>
<line x1="244" y1="184" x2="244" y2="504" stroke="#ccc" stroke-width="0.6"/>
<line x1="254" y1="184" x2="254" y2="504" stroke="#444" stroke-width="1.2"/>
<line x1="264" y1="184" x2="264" y2="504" stroke="#ccc" stroke-width="0.6"/>
<line x1="274" y1="184" x2="274" y2="504" stroke="#ccc" stroke-width="0.6"/>
<line x1="284" y1="184" x2="284" y2="504" stroke="#ccc" stroke-width="0.6"/>
<line x1="294" y1="184" x2="294" y2="504" stroke="#ccc" stroke-width="0.6"/>
<line x1="304" y1="184" x2="304" y2="504" stroke="#444" stroke-width="1.2"/>
<line x1="314" y1="184" x2="314" y2="504" stroke="#ccc" stroke-width="0.6"/>
<line x1="324" y1="184" x2="324" y2="504" stroke="#ccc" stroke-width="0.6"/>
<line x1="334" y1="184" x2="334" y2="504" stroke="#ccc" stroke-width="0.6"/>
<line x1="344" y1="184" x2="344" y2="504" stroke="#ccc" stroke-width="0.6"/>
<line x1="354" y1="184" x2="354" y2="504" stroke="#444" stroke-width="1.2"/>
<line x1="364" y1="184" x2="364" y2="504" stroke="#ccc" stroke-width="0.6"/>
<line x1="374" y1="184" x2="374" y2="504" stroke="#ccc" stroke-width="0.6"/>
<line x1="384" y1="184" x2="384" y2="504" stroke="#ccc" stroke-width="0.6"/>
<line x1="394" y1="184" x2="394" y2="504" stroke="#ccc" stroke-width="0.6"/>
<line x1="404" y1="184" x2="404" y2="504" stroke="#444" stroke-width="1.2"/>
<line x1="414" y1="184" x2="414" y2="504" stroke="#ccc" stroke-width="0.6"/>
<line x1="424" y1="184" x2="424" y2="504" stroke="#ccc" stroke-width="0.6"/>
<line x1="434" y1="184" x2="434" y2="504" stroke="#ccc" stroke-width="0.6"/>
<line x1="444" y1="184" x2="444" y2="504" stroke="#ccc" stroke-width="0.6"/>
<line x1="454" y1="184" x2="454" y2="504" stroke="#444" stroke-width="1.2"/>
<line x1="464" y1="184" x2="464" y2="504" stroke="#ccc" stroke-width="0.6"/>
<line x1="474" y1="184" x2="474" y2="504" stroke="#ccc" stroke-width="0.6"/>
<line x1="154" y1="184" x2="474" y2="184" stroke="#444" stroke-width="1.2"/>
<line x1="154" y1="194" x2="474" y2="194" stroke="#ccc" stroke-width="0.6"/>
<line x1="154" y1="204" x2="474" y2="204" stroke="#ccc" stroke-width="0.6"/>
<line x1="154" y1="214" x2="474" y2="214" stroke="#ccc" stroke-width="0.6"/>
<line x1="154" y1="224" x2="474" y2="224" stroke="#ccc" stroke-width="0.6"/>
<line x1="154" y1="234" x2="474" y2="234" stroke="#444" stroke-width="1.2"/>
<line x1="154" y1="244" x2="474" y2="244" stroke="#ccc" stroke-width="0.6"/>
<line x1="154" y1="254" x2="474" y2="254" stroke="#ccc" stroke-width="0.6"/>
<line x1="154" y1="264" x2="474" y2="264" stroke="#ccc" stroke-width="0.6"/>
<line x1="154" y1="274" x2="474" y2="274" stroke="#ccc" stroke-width="0.6"/>
<line x1="154" y1="284" x2="474" y2="284" stroke="#444" stroke-width="1.2"/>
<line x1="154" y1="294" x2="474" y2="294" stroke="#ccc" stroke-width="0.6"/>
<line x1="154" y1="304" x2="474" y2="304" stroke="#ccc" stroke-width="0.6"/>
<line x1="154" y1="314" x2="474" y2="314" stroke="#ccc" stroke-width="0.6"/>
<line x1="154" y1="324" x2="474" y2="324" stroke="#ccc" stroke-width="0.6"/>
<line x1="154" y1="334" x2="474" y2="334" stroke="#444" stroke-width="1.2"/>
<line x1="154" y1="344" x2="474" y2="344" stroke="#ccc" stroke-width="0.6"/>
<line x1="154" y1="354" x2="474" y2="354" stroke="#ccc" stroke-width="0.6"/>
<line x1="154" y1="364" x2="474" y2="364" stroke="#ccc" stroke-width="0.6"/>
<line x1="154" y1="374" x2="474" y2="374" stroke="#ccc" stroke-width="0.6"/>
<line x1="154" y1="384" x2="474" y2="384" stroke="#444" stroke-width="1.2"/>
<line x1="154" y1="394" x2="474" y2="394" stroke="#ccc" stroke-width="0.6"/>
<line x1="154" y1="404" x2="474" y2="404" stroke="#ccc" stroke-width="0.6"/>
<line x1="154" y1="414" x2="474" y2="414" stroke="#ccc" stroke-width="0.6"/>
<line x1="154" y1="424" x2="474" y2="424" stroke="#ccc" stroke-width="0.6"/>
<line x1="154" y1="434" x2="474" y2="434" stroke="#444" stroke-width="1.2"/>
<line x1="154" y1="444" x2="474" y2="444" stroke="#ccc" stroke-width="0.6"/>
<line x1="154" y1="454" x2="474" y2="454" stroke="#ccc" stroke-width="0.6"/>
<line x1="154" y1="464" x2="474" y2="464" stroke="#ccc" stroke-width="0.6"/>
<line x1="154" y1="474" x2="474" y2="474" stroke="#ccc" stroke-width="0.6"/>
<line x1="154" y1="484" x2="474" y2="484" stroke="#444" stroke-width="1.2"/>
<line x1="154" y1="494" x2="474" y2="494" stroke="#ccc" stroke-width="0.6"/>
<line x1="154" y1="504" x2="474" y2="504" stroke="#ccc" stroke-width="0.6"/>
<text x="149" y="191.66666666666666" text-anchor="end" fill="#333">32</text>
<text x="149" y="201.66666666666666" text-anchor="end" fill="#333">1</text>
<text x="140" y="201.66666666666666" text-anchor="end" fill="#333">1</text>
<text x="131" y="201.66666666666666" text-anchor="end" fill="#333">1</text>
<text x="122" y="201.66666666666666" text-anchor="end" fill="#333">1</text>
<text x="113" y="201.66666666666666" text-anchor="end" fill="#333">1</text>
<text x="104" y="201.66666666666666" text-anchor="end" fill="#333">1</text>
<text x="95" y="201.66666666666666" text-anchor="end" fill="#333">1</text>
<text x="86" y="201.66666666666666" text-anchor="end" fill="#333">1</text>
<text x="77" y="201.66666666666666" text-anchor="end" fill="#333">1</text>
<text x="68" y="201.66666666666666" text-anchor="end" fill="#333">1</text>
<text x="59" y="201.66666666666666" text-anchor="end" fill="#333">1</text>
<text x="50" y="201.66666666666666" text-anchor="end" fill="#333">1</text>
<text x="41" y="201.66666666666666" text-anchor="end" fill="#333">1</text>
<text x="32" y="201.66666666666666" text-anchor="end" fill="#333">1</text>
<text x="23" y="201.66666666666666" text-anchor="end" fill="#333">1</text>
<text x="14" y="201.66666666666666" text-anchor="end" fill="#333">1</text>
<text x="149" y="211.66666666666666" text-anchor="end" fill="#333">2</text>
<text x="140" y="211.66666666666666" text-anchor="end" fill="#333">2</text>
<text x="131" y="211.66666666666666" text-anchor="end" fill="#333">2</text>
<text x="122" y="211.66666666666666" text-anchor="end" fill="#333">2</text>
<text x="113" y="211.66666666666666" text-anchor="end" fill="#333">2</text>
<text x="104" y="211.66666666666666" text-anchor="end" fill="#333">2</text>
<text x="95" y="211.66666666666666" text-anchor="end" fill="#333">2</text>
<text x="86" y="211.66666666666666" text-anchor="end" fill="#333">2</text>
<text x="149" y="221.66666666666666" text-anchor="end" fill="#333">1</text>
<text x="140" y="221.66666666666666" text-anchor="end" fill="#333">1</text>
<text x="131" y="221.66666666666666" text-anchor="end" fill="#333">1</text>
<text x="122" y="221.66666666666666" text-anchor="end" fill="#333">1</text>
<text x="113" y="221.66666666666666" text-anchor="end" fill="#333">1</text>
<text x="104" y="221.66666666666666" text-anchor="end" fill="#333">1</text>
<text x="95" y="221.66666666666666" text-anchor="end" fill="#333">1</text>
<text x="86" y="221.66666666666666" text-anchor="end" fill="#333">1</text>
<text x="149" y="231.66666666666666" text-anchor="end" fill="#333">4</text>
<text x="140" y="231.66666666666666" text-anchor="end" fill="#333">4</text>
<text x="131" y="231.66666666666666" text-anchor="end" fill="#333">4</text>
<text x="122" y="231.66666666666666" text-anchor="end" fill="#333">4</text>
<text x="149" y="241.66666666666666" text-anchor="end" fill="#333">1</text>
<text x="140" y="241.66666666666666" text-anchor="end" fill="#333">1</text>
<text x="131" y="241.66666666666666" text-anchor="end" fill="#333">1</text>
<text x="122" y="241.66666666666666" text-anchor="end" fill="#333">1</text>
<text x="113" y="241.66666666666666" text-anchor="end" fill="#333">1</text>
<text x="104" y="241.66666666666666" text-anchor="end" fill="#333">1</text>
<text x="95" y="241.66666666666666" text-anchor="end" fill="#333">1</text>
<text x="86" y="241.66666666666666" text-anchor="end" fill="#333">1</text>
<text x="149" y="251.66666666666666" text-anchor="end" fill="#333">2</text>
<text x="140" y="251.66666666666666" text-anchor="end" fill="#333">2</text>
<text x="131" y="251.66666666666666" text-anchor="end" fill="#333">2</text>
<text x="122" y="251.66666666666666" text-anchor="end" fill="#333">2</text>
<text x="149" y="261.6666666666667" text-anchor="end" fill="#333">1</text>
<text x="140" y="261.6666666666667" text-anchor="end" fill="#333">1</text>
<text x="131" y="261.6666666666667" text-anchor="end" fill="#333">1</text>
<text x="122" y="261.6666666666667" text-anchor="end" fill="#333">1</text>
<text x="149" y="271.6666666666667" text-anchor="end" fill="#333">8</text>
<text x="140" y="271.6666666666667" text-anchor="end" fill="#333">8</text>
<text x="149" y="281.6666666666667" text-anchor="end" fill="#333">1</text>
<text x="140" y="281.6666666666667" text-anchor="end" fill="#333">1</text>
<text x="131" y="281.6666666666667" text-anchor="end" fill="#333">1</text>
<text x="122" y="281.6666666666667" text-anchor="end" fill="#333">1</text>
<text x="113" y="281.6666666666667" text-anchor="end" fill="#333">1</text>
<text x="104" y="281.6666666666667" text-anchor="end" fill="#333">1</text>
<text x="95" y="281.6666666666667" text-anchor="end" fill="#333">1</text>
<text x="86" y="281.6666666666667" text-anchor="end" fill="#333">1</text>
<text x="149" y="291.6666666666667" text-anchor="end" fill="#333">2</text>
<text x="140" y="291.6666666666667" text-anchor="end" fill="#333">2</text>
<text x="131" y="291.6666666666667" text-anchor="end" fill="#333">2</text>
<text x="122" y="291.6666666666667" text-anchor="end" fill="#333">2</text>
<text x="149" y="301.6666666666667" text-anchor="end" fill="#333">1</text>
<text x="140" y="301.6666666666667" text-anchor="end" fill="#333">1</text>
<text x="131" y="301.6666666666667" text-anchor="end" fill="#333">1</text>
<text x="122" y="301.6666666666667" text-anchor="end" fill="#333">1</text>
<text x="149" y="311.6666666666667" text-anchor="end" fill="#333">4</text>
<text x="140" y="311.6666666666667" text-anchor="end" fill="#333">4</text>
<text x="149" y="321.6666666666667" text-anchor="end" fill="#333">1</text>
<text x="140" y="321.6666666666667" text-anchor="end" fill="#333">1</text>
<text x="131" y="321.6666666666667" text-anchor="end" fill="#333">1</text>
<text x="122" y="321.6666666666667" text-anchor="end" fill="#333">1</text>
<text x="149" y="331.6666666666667" text-anchor="end" fill="#333">2</text>
<text x="140" y="331.6666666666667" text-anchor="end" fill="#333">2</text>
<text x="149" y="341.6666666666667" text-anchor="end" fill="#333">1</text>
<text x="140" y="341.6666666666667" text-anchor="end" fill="#333">1</text>
<text x="149" y="351.6666666666667" text-anchor="end" fill="#333">16</text>
<text x="149" y="361.6666666666667" text-anchor="end" fill="#333">1</text>
<text x="140" y="361.6666666666667" text-anchor="end" fill="#333">1</text>
<text x="131" y="361.6666666666667" text-anchor="end" fill="#333">1</text>
<text x="122" y="361.6666666666667" text-anchor="end" fill="#333">1</text>
<text x="113" y="361.6666666666667" text-anchor="end" fill="#333">1</text>
<text x="104" y="361.6666666666667" text-anchor="end" fill="#333">1</text>
<text x="95" y="361.6666666666667" text-anchor="end" fill="#333">1</text>
<text x="86" y="361.6666666666667" text-anchor="end" fill="#333">1</text>
<text x="149" y="371.6666666666667" text-anchor="end" fill="#333">2</text>
<text x="140" y="371.6666666666667" text-anchor="end" fill="#333">2</text>
<text x="131" y="371.6666666666667" text-anchor="end" fill="#333">2</text>
<text x="122" y="371.6666666666667" text-anchor="end" fill="#333">2</text>
<text x="149" y="381.6666666666667" text-anchor="end" fill="#333">1</text>
<text x="140" y="381.6666666666667" text-anchor="end" fill="#333">1</text>
<text x="131" y="381.6666666666667" text-anchor="end" fill="#333">1</text>
<text x="122" y="381.6666666666667" text-anchor="end" fill="#333">1</text>
<text x="149" y="391.6666666666667" text-anchor="end" fill="#333">4</text>
<text x="140" y="391.6666666666667" text-anchor="end" fill="#333">4</text>
<text x="149" y="401.6666666666667" text-anchor="end" fill="#333">1</text>
<text x="140" y="401.6666666666667" text-anchor="end" fill="#333">1</text>
<text x="131" y="401.6666666666667" text-anchor="end" fill="#333">1</text>
<text x="122" y="401.6666666666667" text-anchor="end" fill="#333">1</text>
<text x="149" y="411.6666666666667" text-anchor="end" fill="#333">2</text>
<text x="140" y="411.6666666666667" text-anchor="end" fill="#333">2</text>
<text x="149" y="421.6666666666667" text-anchor="end" fill="#333">1</text>
<text x="140" y="421.6666666666667" text-anchor="end" fill="#333">1</text>
<text x="149" y="431.6666666666667" text-anchor="end" fill="#333">8</text>
<text x="149" y="441.6666666666667" text-anchor="end" fill="#333">1</text>
<text x="140" y="441.6666666666667" text-anchor="end" fill="#333">1</text>
<text x="131" y="441.6666666666667" text-anchor="end" fill="#333">1</text>
<text x="122" y="441.6666666666667" text-anchor="end" fill="#333">1</text>
<text x="149" y="451.6666666666667" text-anchor="end" fill="#333">2</text>
<text x="140" y="451.6666666666667" text-anchor="end" fill="#333">2</text>
<text x="149" y="461.6666666666667" text-anchor="end" fill="#333">1</text>
<text x="140" y="461.6666666666667" text-anchor="end" fill="#333">1</text>
<text x="149" y="471.6666666666667" text-anchor="end" fill="#333">4</text>
<text x="149" y="481.6666666666667" text-anchor="end" fill="#333">1</text>
<text x="140" y="481.6666666666667" text-anchor="end" fill="#333">1</text>
<text x="149" y="491.6666666666667" text-anchor="end" fill="#333">2</text>
<text x="149" y="501.6666666666667" text-anchor="end" fill="#333">1</text>
<text x="159.0" y="180" text-anchor="middle" fill="#333">32</text>
<text x="169.0" y="180" text-anchor="middle" fill="#333">1</text>
<text x="169.0" y="169" text-anchor="middle" fill="#333">1</text>
<text x="169.0" y="158" text-anchor="middle" fill="#333">1</text>
<text x="169.0" y="147" text-anchor="middle" fill="#333">1</text>
<text x="169.0" y="136" text-anchor="middle" fill="#333">1</text>
<text x="169.0" y="125" text-anchor="middle" fill="#333">1</text>
<text x="169.0" y="114" text-anchor="middle" fill="#333">1</text>
<text x="169.0" y="103" text-anchor="middle" fill="#333">1</text>
<text x="169.0" y="92" text-anchor="middle" fill="#333">1</text>
<text x="169.0" y="81" text-anchor="middle" fill="#333">1</text>
<text x="169.0" y="70" text-anchor="middle" fill="#333">1</text>
<text x="169.0" y="59" text-anchor="middle" fill="#333">1</text>
<text x="169.0" y="48" text-anchor="middle" fill="#333">1</text>
<text x="169.0" y="37" text-anchor="middle" fill="#333">1</text>
<text x="169.0" y="26" text-anchor="middle" fill="#333">1</text>
<text x="169.0" y="15" text-anchor="middle" fill="#333">1</text>
<text x="179.0" y="180" text-anchor="middle" fill="#333">2</text>
<text x="179.0" y="169" text-anchor="middle" fill="#333">2</text>
<text x="179.0" y="158" text-anchor="middle" fill="#333">2</text>
<text x="179.0" y="147" text-anchor="middle" fill="#333">2</text>
<text x="179.0" y="136" text-anchor="middle" fill="#333">2</text>
<text x="179.0" y="125" text-anchor="middle" fill="#333">2</text>
<text x="179.0" y="114" text-anchor="middle" fill="#333">2</text>
<text x="179.0" y="103" text-anchor="middle" fill="#333">2</text>
<text x="189.0" y="180" text-anchor="middle" fill="#333">1</text>
<text x="189.0" y="169" text-anchor="middle" fill="#333">1</text>
<text x="189.0" y="158" text-anchor="middle" fill="#333">1</text>
<text x="189.0" y="147" text-anchor="middle" fill="#333">1</text>
<text x="189.0" y="136" text-anchor="middle" fill="#333">1</text>
<text x="189.0" y="125" text-anchor="middle" fill="#333">1</text>
<text x="189.0" y="114" text-anchor="middle" fill="#333">1</text>
<text x="189.0" y="103" text-anchor="middle" fill="#333">1</text>
<text x="199.0" y="180" text-anchor="middle" fill="#333">4</text>
<text x="199.0" y="169" text-anchor="middle" fill="#333">4</text>
<text x="199.0" y="158" text-anchor="middle" fill="#333">4</text>
<text x="199.0" y="147" text-anchor="middle" fill="#333">4</text>
<text x="209.0" y="180" text-anchor="middle" fill="#333">1</text>
<text x="209.0" y="169" text-anchor="middle" fill="#333">1</text>
<text x="209.0" y="158" text-anchor="middle" fill="#333">1</text>
<text x="209.0" y="147" text-anchor="middle" fill="#333">1</text>
<text x="209.0" y="136" text-anchor="middle" fill="#333">1</text>
<text x="209.0" y="125" text-anchor="middle" fill="#333">1</text>
<text x="209.0" y="114" text-anchor="middle" fill="#333">1</text>
<text x="209.0" y="103" text-anchor="middle" fill="#333">1</text>
<text x="219.0" y="180" text-anchor="middle" fill="#333">2</text>
<text x="219.0" y="169" text-anchor="middle" fill="#333">2</text>
<text x="219.0" y="158" text-anchor="middle" fill="#333">2</text>
<text x="219.0" y="147" text-anchor="middle" fill="#333">2</text>
<text x="229.0" y="180" text-anchor="middle" fill="#333">1</text>
<text x="229.0" y="169" text-anchor="middle" fill="#333">1</text>
<text x="229.0" y="158" text-anchor="middle" fill="#333">1</text>
<text x="229.0" y="147" text-anchor="middle" fill="#333">1</text>
<text x="239.0" y="180" text-anchor="middle" fill="#333">8</text>
<text x="239.0" y="169" text-anchor="middle" fill="#333">8</text>
<text x="249.0" y="180" text-anchor="middle" fill="#333">1</text>
<text x="249.0" y="169" text-anchor="middle" fill="#333">1</text>
<text x="249.0" y="158" text-anchor="middle" fill="#333">1</text>
<text x="249.0" y="147" text-anchor="middle" fill="#333">1</text>
<text x="249.0" y="136" text-anchor="middle" fill="#333">1</text>
<text x="249.0" y="125" text-anchor="middle" fill="#333">1</text>
<text x="249.0" y="114" text-anchor="middle" fill="#333">1</text>
<text x="249.0" y="103" text-anchor="middle" fill="#333">1</text>
<text x="259.0" y="180" text-anchor="middle" fill="#333">2</text>
<text x="259.0" y="169" text-anchor="middle" fill="#333">2</text>
<text x="259.0" y="158" text-anchor="middle" fill="#333">2</text>
<text x="259.0" y="147" text-anchor="middle" fill="#333">2</text>
<text x="269.0" y="180" text-anchor="middle" fill="#333">1</text>
<text x="269.0" y="169" text-anchor="middle" fill="#333">1</text>
<text x="269.0" y="158" text-anchor="middle" fill="#333">1</text>
<text x="269.0" y="147" text-anchor="middle" fill="#333">1</text>
<text x="279.0" y="180" text-anchor="middle" fill="#333">4</text>
<text x="279.0" y="169" text-anchor="middle" fill="#333">4</text>
<text x="289.0" y="180" text-anchor="middle" fill="#333">1</text>
<text x="289.0" y="169" text-anchor="middle" fill="#333">1</text>
<text x="289.0" y="158" text-anchor="middle" fill="#333">1</text>
<text x="289.0" y="147" text-anchor="middle" fill="#333">1</text>
<text x="299.0" y="180" text-anchor="middle" fill="#333">2</text>
<text x="299.0" y="169" text-anchor="middle" fill="#333">2</text>
<text x="309.0" y="180" text-anchor="middle" fill="#333">1</text>
<text x="309.0" y="169" text-anchor="middle" fill="#333">1</text>
<text x="319.0" y="180" text-anchor="middle" fill="#333">16</text>
<text x="329.0" y="180" text-anchor="middle" fill="#333">1</text>
<text x="329.0" y="169" text-anchor="middle" fill="#333">1</text>
<text x="329.0" y="158" text-anchor="middle" fill="#333">1</text>
<text x="329.0" y="147" text-anchor="middle" fill="#333">1</text>
<text x="329.0" y="136" text-anchor="middle" fill="#333">1</text>
<text x="329.0" y="125" text-anchor="middle" fill="#333">1</text>
<text x="329.0" y="114" text-anchor="middle" fill="#333">1</text>
<text x="329.0" y="103" text-anchor="middle" fill="#333">1</text>
<text x="339.0" y="180" text-anchor="middle" fill="#333">2</text>
<text x="339.0" y="169" text-anchor="middle" fill="#333">2</text>
<text x="339.0" y="158" text-anchor="middle" fill="#333">2</text>
<text x="339.0" y="147" text-anchor="middle" fill="#333">2</text>
<text x="349.0" y="180" text-anchor="middle" fill="#333">1</text>
<text x="349.0" y="169" text-anchor="middle" fill="#333">1</text>
<text x="349.0" y="158" text-anchor="middle" fill="#333">1</text>
<text x="349.0" y="147" text-anchor="middle" fill="#333">1</text>
<text x="359.0" y="180" text-anchor="middle" fill="#333">4</text>
<text x="359.0" y="169" text-anchor="middle" fill="#333">4</text>
<text x="369.0" y="180" text-anchor="middle" fill="#333">1</text>
<text x="369.0" y="169" text-anchor="middle" fill="#333">1</text>
<text x="369.0" y="158" text-anchor="middle" fill="#333">1</text>
<text x="369.0" y="147" text-anchor="middle" fill="#333">1</text>
<text x="379.0" y="180" text-anchor="middle" fill="#333">2</text>
<text x="379.0" y="169" text-anchor="middle" fill="#333">2</text>
<text x="389.0" y="180" text-anchor="middle" fill="#333">1</text>
<text x="389.0" y="169" text-anchor="middle" fill="#333">1</text>
<text x="399.0" y="180" text-anchor="middle" fill="#333">8</text>
<text x="409.0" y="180" text-anchor="middle" fill="#333">1</text>
<text x="409.0" y="169" text-anchor="middle" fill="#333">1</text>
<text x="409.0" y="158" text-anchor="middle" fill="#333">1</text>
<text x="409.0" y="147" text-anchor="middle" fill="#333">1</text>
<text x="419.0" y="180" text-anchor="middle" fill="#333">2</text>
<text x="419.0" y="169" text-anchor="middle" fill="#333">2</text>
<text x="429.0" y="180" text-anchor="middle" fill="#333">1</text>
<text x="429.0" y="169" text-anchor="middle" fill="#333">1</text>
<text x="439.0" y="180" text-anchor="middle" fill="#333">4</text>
<text x="449.0" y="180" text-anchor="middle" fill="#333">1</text>
<text x="449.0" y="169" text-anchor="middle" fill="#333">1</text>
<text x="459.0" y="180" text-anchor="middle" fill="#333">2</text>
<text x="469.0" y="180" text-anchor="middle" fill="#333">1</text>
</svg>