<svg xmlns="http://www.w3.org/2000/svg" width="292" height="296" viewBox="0 0 292 296" font-family="sans-serif" font-size="19">
<rect width="292" height="296" fill="#fff"/>
<rect x="114" y="74" width="22" height="22" fill="#1d1d1b"/>
<rect x="136" y="74" width="22" height="22" fill="#1d1d1b"/>
<rect x="158" y="74" width="22" height="22" fill="#1d1d1b"/>
<rect x="180" y="74" width="22" height="22" fill="#1d1d1b"/>
<rect x="202" y="74" width="22" height="22" fill="#1d1d1b"/>
<rect x="224" y="74" width="22" height="22" fill="#1d1d1b"/>
<rect x="92" y="96" width="22" height="22" fill="#1d1d1b"/>
<rect x="114" y="96" width="22" height="22" fill="#1d1d1b"/>
<rect x="136" y="96" width="22" height="22" fill="#1d1d1b"/>
<rect x="158" y="96" width="22" height="22" fill="#1d1d1b"/>
<rect x="180" y="96" width="22" height="22" fill="#1d1d1b"/>
<rect x="202" y="96" width="22" height="22" fill="#1d1d1b"/>
<rect x="224" y="96" width="22" height="22" fill="#1d1d1b"/>
<rect x="246" y="96" width="22" height="22" fill="#1d1d1b"/>
<rect x="70" y="118" width="22" height="22" fill="#1d1d1b"/>
<rect x="92" y="118" width="22" height="22" fill="#1d1d1b"/>
<rect x="114" y="118" width="22" height="22" fill="#1d1d1b"/>
<rect x="136" y="118" width="22" height="22" fill="#1d1d1b"/>
<rect x="158" y="118" width="22" height="22" fill="#1d1d1b"/>
<rect x="180" y="118" width="22" height="22" fill="#1d1d1b"/>
<rect x="202" y="118" width="22" height="22" fill="#1d1d1b"/>
<rect x="224" y="118" width="22" height="22" fill="#1d1d1b"/>
<rect x="246" y="118" width="22" height="22" fill="#1d1d1b"/>
<rect x="268" y="118" width="22" height="22" fill="#1d1d1b"/>
<rect x="70" y="140" width="22" height="22" fill="#1d1d1b"/>
<rect x="92" y="140" width="22" height="22" fill="#1d1d1b"/>
<rect x="158" y="140" width="22" height="22" fill="#1d1d1b"/>
<rect x="180" y="140" width="22" height="22" fill="#1d1d1b"/>
<rect x="246" y="140" width="22" height="22" fill="#1d1d1b"/>
<rect x="268" y="140" width="22" height="22" fill="#1d1d1b"/>
<rect x="70" y="162" width="22" height="22" fill="#1d1d1b"/>
<rect x="92" y="162" width="22" height="22" fill="#1d1d1b"/>
<rect x="158" y="162" width="22" height="22" fill="#1d1d1b"/>
<rect x="180" y="162" width="22" height="22" fill="#1d1d1b"/>
<rect x="246" y="162" width="22" height="22" fill="#1d1d1b"/>
<rect x="268" y="162" width="22" height="22" fill="#1d1d1b"/>
<rect x="70" y="184" width="22" height="22" fill="#1d1d1b"/>
<rect x="92" y="184" width="22" height="22" fill="#1d1d1b"/>
<rect x="114" y="184" width="22" height="22" fill="#1d1d1b"/>
<rect x="136" y="184" width="22" height="22" fill="#1d1d1b"/>
<rect x="158" y="184" width="22" height="22" fill="#1d1d1b"/>
<rect x="180" y="184" width="22" height="22" fill="#1d1d1b"/>
<rect x="202" y="184" width="22" height="22" fill="#1d1d1b"/>
<rect x="224" y="184" width="22" height="22" fill="#1d1d1b"/>
<rect x="246" y="184" width="22" height="22" fill="#1d1d1b"/>
<rect x="268" y="184" width="22" height="22" fill="#1d1d1b"/>
<rect x="70" y="206" width="22" height="22" fill="#1d1d1b"/>
<rect x="114" y="206" width="22" height="22" fill="#1d1d1b"/>
<rect x="136" y="206" width="22" height="22" fill="#1d1d1b"/>
<rect x="158" y="206" width="22" height="22" fill="#1d1d1b"/>
<rect x="180" y="206" width="22" height="22" fill="#1d1d1b"/>
<rect x="202" y="206" width="22" height="22" fill="#1d1d1b"/>
<rect x="224" y="206" width="22" height="22" fill="#1d1d1b"/>
<rect x="268" y="206" width="22" height="22" fill="#1d1d1b"/>
<rect x="70" y="228" width="22" height="22" fill="#1d1d1b"/>
<rect x="92" y="228" width="22" height="22" fill="#1d1d1b"/>
<rect x="246" y="228" width="22" height="22" fill="#1d1d1b"/>
<rect x="268" y="228" width="22" height="22" fill="#1d1d1b"/>
<rect x="92" y="250" width="22" height="22" fill="#1d1d1b"/>
<rect x="114" y="250" width="22" height="22" fill="#1d1d1b"/>
<rect x="136" y="250" width="22" height="22" fill="#1d1d1b"/>
<rect x="158" y="250" width="22" height="22" fill="#1d1d1b"/>
<rect x="180" y="250" width="22" height="22" fill="#1d1d1b"/>
<rect x="202" y="250" width="22" height="22" fill="#1d1d1b"/>
<rect x="224" y="250" width="22" height="22" fill="#1d1d1b"/>
<rect x="246" y="250" width="22" height="22" fill="#1d1d1b"/>
<rect x="114" y="272" width="22" height="22" fill="#1d1d1b"/>
<rect x="136" y="272" width="22" height="22" fill="#1d1d1b"/>
<rect x="158" y="272" width="22" height="22" fill="#1d1d1b"/>
<rect x="180" y="272" width="22" height="22" fill="#1d1d1b"/>
<rect x="202" y="272" width="22" height="22" fill="#1d1d1b"/>
<rect x="224" y="272" width="22" height="22" fill="#1d1d1b"/>
<line x1="70" y1="74" x2="70" y2="294" stroke="#444" stroke-width="1.2"/>
<line x1="92" y1="74" x2="92" y2="294" stroke="#ccc" stroke-width="0.6"/>
<line x1="114" y1="74" x2="114" y2="294" stroke="#ccc" stroke-width="0.6"/>
<line x1="136" y1="74" x2="136" y2="294" stroke="#ccc" stroke-width="0.6"/>
<line x1="158" y1="74" x2="158" y2="294" stroke="#ccc" stroke-width="0.6"/>
<line x1="180" y1="74" x2="180" y2="294" stroke="#444" stroke-width="1.2"/>
<line x1="202" y1="74" x2="202" y2="294" stroke="#ccc" stroke-width="0.6"/>
<line x1="224" y1="74" x2="224" y2="294" stroke="#ccc" stroke-width="0.6"/>
<line x1="246" y1="74" x2="246" y2="294" stroke="#ccc" stroke-width="0.6"/>
<line x1="268" y1="74" x2="268" y2="294" stroke="#ccc" stroke-width="0.6"/>
<line x1="290" y1="74" x2="290" y2="294" stroke="#444" stroke-width="1.2"/>
<line x1="70" y1="74" x2="290" y2="74" stroke="#444" stroke-width="1.2"/>
<line x1="70" y1="96" x2="290" y2="96" stroke="#ccc" stroke-width="0.6"/>
<line x1="70" y1="118" x2="290" y2="118" stroke="#ccc" stroke-width="0.6"/>
<line x1="70" y1="140" x2="290" y2="140" stroke="#ccc" stroke-width="0.6"/>
<line x1="70" y1="162" x2="290" y2="162" stroke="#ccc" stroke-width="0.6"/>
<line x1="70" y1="184" x2="290" y2="184" stroke="#444" stroke-width="1.2"/>
<line x1="70" y1="206" x2="290" y2="206" stroke="#ccc" stroke-width="0.6"/>
<line x1="70" y1="228" x2="290" y2="228" stroke="#ccc" stroke-width="0.6"/>
<line x1="70" y1="250" x2="290" y2="250" stroke="#ccc" stroke-width="0.6"/>
<line x1="70" y1="272" x2="290" y2="272" stroke="#ccc" stroke-width="0.6"/>
<line x1="70" y1="294" x2="290" y2="294" stroke="#444" stroke-width="1.2"/>
<text x="65" y="91.33333333333333" text-anchor="end" fill="#333">6</text>
<text x="65" y="113.33333333333333" text-anchor="end" fill="#333">8</text>
<text x="65" y="135.33333333333334" text-anchor="end" fill="#333">10</text>
<text x="65" y="157.33333333333334" text-anchor="end" fill="#333">2</text>
<text x="45" y="157.33333333333334" text-anchor="end" fill="#333">2</text>
<text x="25" y="157.33333333333334" text-anchor="end" fill="#333">2</text>
<text x="65" y="179.33333333333334" text-anchor="end" fill="#333">2</text>
<text x="45" y="179.33333333333334" text-anchor="end" fill="#333">2</text>
<text x="25" y="179.33333333333334" text-anchor="end" fill="#333">2</text>
<text x="65" y="201.33333333333334" text-anchor="end" fill="#333">10</text>
<text x="65" y="223.33333333333334" text-anchor="end" fill="#333">1</text>
<text x="45" y="223.33333333333334" text-anchor="end" fill="#333">6</text>
<text x="25" y="223.33333333333334" text-anchor="end" fill="#333">1</text>
<text x="65" y="245.33333333333334" text-anchor="end" fill="#333">2</text>
<text x="45" y="245.33333333333334" text-anchor="end" fill="#333">2</text>
<text x="65" y="267.3333333333333" text-anchor="end" fill="#333">8</text>
<text x="65" y="289.3333333333333" text-anchor="end" fill="#333">6</text>
<text x="81.0" y="70" text-anchor="middle" fill="#333">6</text>
<text x="103.0" y="70" text-anchor="middle" fill="#333">2</text>
<text x="103.0" y="48" text-anchor="middle" fill="#333">5</text>
<text x="125.0" y="70" text-anchor="middle" fill="#333">2</text>
<text x="125.0" y="48" text-anchor="middle" fill="#333">2</text>
<text x="125.0" y="26" text-anchor="middle" fill="#333">3</text>
<text x="147.0" y="70" text-anchor="middle" fill="#333">2</text>
<text x="147.0" y="48" text-anchor="middle" fill="#333">2</text>
<text x="147.0" y="26" text-anchor="middle" fill="#333">3</text>
<text x="169.0" y="70" text-anchor="middle" fill="#333">2</text>
<text x="169.0" y="48" text-anchor="middle" fill="#333">7</text>
<text x="191.0" y="70" text-anchor="middle" fill="#333">2</text>
<text x="191.0" y="48" text-anchor="middle" fill="#333">7</text>
<text x="213.0" y="70" text-anchor="middle" fill="#333">2</text>
<text x="213.0" y="48" text-anchor="middle" fill="#333">2</text>
<text x="213.0" y="26" text-anchor="middle" fill="#333">3</text>
<text x="235.0" y="70" text-anchor="middle" fill="#333">2</text>
<text x="235.0" y="48" text-anchor="middle" fill="#333">2</text>
<text x="235.0" y="26" text-anchor="middle" fill="#333">3</text>
<text x="257.0" y="70" text-anchor="middle" fill="#333">2</text>
<text x="257.0" y="48" text-anchor="middle" fill="#333">5</text>
<text x="279.0" y="70" text-anchor="middle" fill="#333">6</text>
</svg>